<svg xmlns="http://www.w3.org/2000/svg">
  <symbol id="todo" fill="none">
    <path d="M20 35C23.4703 35 26.8333 33.7967 29.5159 31.5952C32.1985 29.3936 34.0348 26.33 34.7118 22.9264C35.3888 19.5227 34.8647 15.9896 33.2288 12.9291C31.5929 9.86849 28.9464 7.46985 25.7403 6.14181C22.5341 4.81377 18.9666 4.63851 15.6457 5.64589C12.3248 6.65328 9.45597 8.78097 7.52796 11.6664C5.59995 14.5519 4.73208 18.0166 5.07223 21.4703C5.41238 24.9239 6.9395 28.1527 9.3934 30.6066" stroke="currentColor" stroke-width="4" stroke-linecap="round" />
    <path d="M26.6667 16.6666L19.7355 24.9842C19.0799 25.7709 18.7521 26.1642 18.3115 26.1842C17.871 26.2042 17.5089 25.8421 16.7848 25.118L13.3334 21.6666" stroke="currentColor" stroke-width="4" stroke-linecap="round" />
  </symbol>

  <symbol id="timer">
    <path fill-rule="evenodd" clip-rule="evenodd" d="M35 23.3334C35 31.6176 28.2843 38.3334 20 38.3334C11.7157 38.3334 5 31.6176 5 23.3334C5 15.0491 11.7157 8.33337 20 8.33337C28.2843 8.33337 35 15.0491 35 23.3334ZM20 33C25.3388 33 29.6667 28.6721 29.6667 23.3334C29.6667 17.9946 25.3388 13.6667 20 13.6667C14.6612 13.6667 10.3333 17.9946 10.3333 23.3334C10.3333 28.6721 14.6612 33 20 33ZM20 35C26.4433 35 31.6667 29.7767 31.6667 23.3334C31.6667 16.8901 26.4433 11.6667 20 11.6667C13.5567 11.6667 8.33333 16.8901 8.33333 23.3334C8.33333 29.7767 13.5567 35 20 35ZM21.5 18.3334C21.5 17.5049 20.8284 16.8334 20 16.8334C19.1716 16.8334 18.5 17.5049 18.5 18.3334V23.3334C18.5 24.1618 19.1716 24.8334 20 24.8334C20.8284 24.8334 21.5 24.1618 21.5 23.3334V18.3334Z" />
    <path d="M27.7523 11.0858C26.9712 11.8669 26.9712 13.1332 27.7523 13.9142C28.5333 14.6953 29.7997 14.6953 30.5807 13.9142L27.7523 11.0858ZM33.0807 11.4142C33.8618 10.6332 33.8618 9.36683 33.0807 8.58578C32.2997 7.80474 31.0333 7.80474 30.2523 8.58579L33.0807 11.4142ZM30.5807 13.9142L33.0807 11.4142L30.2523 8.58579L27.7523 11.0858L30.5807 13.9142Z" />
    <path d="M16.7804 3.95102C16.9703 3.77383 17.3888 3.61725 17.971 3.50558C18.5531 3.39391 19.2664 3.33337 20.0002 3.33337C20.7339 3.33337 21.4472 3.39391 22.0294 3.50558C22.6115 3.61725 23.03 3.77383 23.2199 3.95102" stroke="currentColor" stroke-width="4" stroke-linecap="round" />
  </symbol>

  <symbol id="notes" fill="none">
    <rect x="8.3335" y="6.66663" width="23.3333" height="28.3333" rx="2" stroke="currentColor" stroke-width="2" stroke-miterlimit="1" stroke-linecap="round" stroke-linejoin="round" />
    <path d="M15 15H25" stroke="currentColor" stroke-width="4" stroke-linecap="round" />
    <path d="M15 21.6666H25" stroke="currentColor" stroke-width="4" stroke-linecap="round" />
    <path d="M15 28.3334H21.6667" stroke="currentColor" stroke-width="4" stroke-linecap="round" />
    <path fill-rule="evenodd" clip-rule="evenodd" d="M33.4065 14.5709L34.1194 13.8587C34.7525 13.2263 34.7525 12.2002 34.1194 11.5678C33.4872 10.9362 32.4629 10.9362 31.8308 11.5678L31.1013 12.2965C31.6363 13.2539 32.4347 14.0451 33.4065 14.5709ZM29.6457 13.7506L26.3868 17.0062L26.3868 17.0062C25.9613 17.4313 25.7485 17.6438 25.6086 17.905C25.4687 18.1662 25.4097 18.4611 25.2916 19.0509L25.104 19.988C25.0374 20.3206 25.0041 20.4869 25.0987 20.5816C25.1933 20.6762 25.3596 20.643 25.6922 20.5765L26.6335 20.3884C27.2226 20.2707 27.5172 20.2119 27.7782 20.0723C28.0392 19.9327 28.2517 19.7204 28.6768 19.2958L31.9464 16.0295C31.0266 15.4377 30.2433 14.66 29.6457 13.7506Z" fill="currentColor" />
  </symbol>

  <symbol id="apply" fill="none">
    <path d="M23 2L11.3489 17.9787C10.6687 18.9115 10.3286 19.3779 9.84831 19.3992C9.36797 19.4205 8.98788 18.9861 8.2277 18.1174L2 11" stroke="currentColor" stroke-width="4" stroke-linecap="round" />
  </symbol>

  <symbol id="plus">
    <path d="m11 11h-7.25c-.414 0-.75.336-.75.75s.336.75.75.75h7.25v7.25c0 .414.336.75.75.75s.75-.336.75-.75v-7.25h7.25c.414 0 .75-.336.75-.75s-.336-.75-.75-.75h-7.25v-7.25c0-.414-.336-.75-.75-.75s-.75.336-.75.75z" />
  </symbol>

  <symbol id="options-menu">
    <ellipse cx="2.5" cy="2.46914" rx="2.5" ry="2.46914" />
    <ellipse cx="2.5" cy="9.87661" rx="2.5" ry="2.46914" />
    <ellipse cx="2.5" cy="17.2838" rx="2.5" ry="2.46914" />
  </symbol>

  <symbol id="arrow-back">
    <path d="M1.35062 13.4615C0.955533 13.0731 0.749618 12.5307 0.788122 11.9782C0.747944 11.4442 0.955533 10.9235 1.35062 10.5619L10.4963 1.38278C11.2563 0.622733 12.4885 0.622733 13.2485 1.38278C14.0086 2.14282 14.0086 3.37497 13.2485 4.13501L7.31716 10.0664H21.2725C22.3406 10.0597 23.2112 10.9202 23.2162 11.9882V12C23.2095 13.0714 22.344 13.9386 21.2725 13.9436H7.31716L13.2502 19.8649C14.0103 20.625 14.0103 21.8571 13.2502 22.6172C12.4902 23.3772 11.258 23.3772 10.498 22.6172L1.35062 13.4615Z" />
  </symbol>

  <symbol id="pin" fill="none">
    <path d="M13.5 13.1V13.3835L13.7433 13.5291C15.732 14.7188 17.0502 16.6121 17.2291 18.75H10.25H9.75V19.25V24.25C9.75 24.6614 9.41136 25 9 25C8.58864 25 8.25 24.6614 8.25 24.25V19.25V18.75H7.75H0.770859C0.949806 16.6121 2.26799 14.7188 4.25669 13.5291L4.5 13.3835V13.1V4.25V3.75H4H3.375C2.61614 3.75 2 3.13386 2 2.375C2 1.61614 2.61614 1 3.375 1H14.625C15.3839 1 16 1.61614 16 2.375C16 3.13386 15.3839 3.75 14.625 3.75H14H13.5V4.25V13.1Z" stroke="currentColor" />
  </symbol>

  <symbol id="restore">
    <path d="M15.4286 0C12.3596 0 9.4164 1.2116 7.24634 3.36827C5.07627 5.52494 3.85714 8.45001 3.85714 11.5H0L5.00143 16.4706L5.09143 16.6494L10.2857 11.5H6.42857C6.42857 9.12779 7.37678 6.85273 9.06461 5.17532C10.7524 3.49791 13.0416 2.55556 15.4286 2.55556C17.8155 2.55556 20.1047 3.49791 21.7925 5.17532C23.4804 6.85273 24.4286 9.12779 24.4286 11.5C24.4286 13.8722 23.4804 16.1473 21.7925 17.8247C20.1047 19.5021 17.8155 20.4444 15.4286 20.4444C12.9471 20.4444 10.6971 19.435 9.07714 17.8122L7.25143 19.6267C9.34714 21.7222 12.2143 23 15.4286 23C18.4975 23 21.4407 21.7884 23.6108 19.6317C25.7809 17.4751 27 14.55 27 11.5C27 8.45001 25.7809 5.52494 23.6108 3.36827C21.4407 1.2116 18.4975 0 15.4286 0Z" />
  </symbol>

  <symbol id="menu">
    <path d="M7.08334 9.91675H26.9167" stroke="currentColor" stroke-width="4" stroke-linecap="round" />
    <path d="M7.00003 17H17" stroke="currentColor" stroke-width="4" stroke-linecap="round" />
    <path d="M7.08334 24.0833L22 24" stroke="currentColor" stroke-width="4" stroke-linecap="round" />
  </symbol>
  
  <symbol id="cancel">
    <path d="M19.1563 15.0134L28.3126 5.86158C29.4622 4.71202 29.4622 2.8571 28.3126 1.70754C27.1631 0.557982 25.3081 0.557982 24.1586 1.70754L15.0023 10.8594L5.84824 1.70531C4.69868 0.55575 2.84376 0.55575 1.6942 1.70531C0.544642 2.85487 0.544642 4.70979 1.6942 5.85935L10.8505 15.0112L1.6942 24.163C0.544642 25.3126 0.544642 27.1675 1.6942 28.317C2.84599 29.4666 4.70761 29.4666 5.84824 28.317L15.0045 19.1652L24.1608 28.317C25.3104 29.4666 27.1653 29.4666 28.3149 28.317C29.4555 27.1675 29.4555 25.3126 28.3037 24.1608L19.1563 15.0134Z" />
  </symbol>

  <symbol id="toggle-arrow-thin">
    <path d="M9 2L9.70711 1.29289L9 0.585786L8.29289 1.29289L9 2ZM17.7071 9.29289L9.70711 1.29289L8.29289 2.70711L16.2929 10.7071L17.7071 9.29289ZM8.29289 1.29289L0.292892 9.29289L1.70711 10.7071L9.70711 2.70711L8.29289 1.29289Z" />
  </symbol>

  <symbol id="toggle-arrow-bold">
    <path d="M8.74329 0.825883L15.4979 8.33103C16.0771 8.97456 15.6204 10 14.7546 10H1.24536C0.379591 10 -0.0771008 8.97456 0.502069 8.33103L7.25671 0.825882C7.65395 0.384502 8.34605 0.384502 8.74329 0.825883Z" />
  </symbol>

  <symbol id="trash" fill="none">
    <path d="M4.33337 7.58337H21.6667" stroke="currentColor" stroke-width="2" stroke-linecap="round" stroke-linejoin="round" />
    <path d="M10.8334 11.9166V18.4166" stroke="currentColor" stroke-width="2" stroke-linecap="round" stroke-linejoin="round" />
    <path d="M15.1666 11.9166V18.4166" stroke="currentColor" stroke-width="2" stroke-linecap="round" stroke-linejoin="round" />
    <path d="M5.41663 7.58337L6.49996 20.5834C6.49996 21.158 6.72823 21.7091 7.13456 22.1154C7.54089 22.5218 8.09199 22.75 8.66663 22.75H17.3333C17.9079 22.75 18.459 22.5218 18.8654 22.1154C19.2717 21.7091 19.5 21.158 19.5 20.5834L20.5833 7.58337" stroke="currentColor" stroke-width="2" stroke-linecap="round" stroke-linejoin="round" />
    <path d="M9.75 7.58333V4.33333C9.75 4.04602 9.86414 3.77047 10.0673 3.5673C10.2705 3.36414 10.546 3.25 10.8333 3.25H15.1667C15.454 3.25 15.7295 3.36414 15.9327 3.5673C16.1359 3.77047 16.25 4.04602 16.25 4.33333V7.58333" stroke="currentColor" stroke-width="2" stroke-linecap="round" stroke-linejoin="round" />
  </symbol>

  <symbol id="tomato">
    <path d="M19.3626 8.89031C18.9835 2.30094 15.5794 1.3375 12.8351 1.33719C12.8347 1.33719 12.8347 1.33719 12.8347 1.33719C12.1413 1.3375 11.4907 1.39875 10.941 1.44687C10.9363 1.14719 10.9491 0.82625 10.9994 0.471563C11.0004 0.466563 10.9982 0.462188 10.9976 0.4575C10.9982 0.455 10.9994 0.4525 10.9994 0.45C10.9994 0.339687 10.7919 0.25 10.5351 0.25C10.2788 0.25 10.0713 0.339687 10.0713 0.45C9.99943 0.823125 9.89787 1.17687 9.78474 1.50344C6.1638 1.52531 1.39412 2.09969 0.665992 8.66656C0.137867 13.4325 4.79255 17.75 10.0291 17.75C15.2657 17.75 19.6379 13.6797 19.3626 8.89031ZM11.136 2.37094C11.2638 2.35969 11.3963 2.34812 11.5326 2.33719C11.3688 2.40313 11.2097 2.47156 11.0601 2.54031C11.0491 2.49094 11.0416 2.43219 11.0316 2.37969C11.0666 2.37687 11.1001 2.37406 11.136 2.37094ZM9.3988 2.44531C9.35787 2.53062 9.31787 2.6125 9.27943 2.68781C9.19443 2.61031 9.0963 2.53187 8.98787 2.45594C9.12474 2.45125 9.26162 2.44812 9.3988 2.44531ZM16.4522 14.1019C14.8257 15.8247 12.4844 16.8125 10.0291 16.8125C7.52693 16.8125 5.04162 15.705 3.38037 13.85C2.03443 12.3466 1.4013 10.5425 1.59787 8.76969C1.96693 5.44219 3.43912 3.85281 5.32849 3.1C7.15912 2.76 8.88162 3.38437 8.88162 3.38437C8.88162 3.38437 4.9663 2.4125 3.43099 7.44312C5.36318 4.43094 8.68818 5.3175 9.56287 4.20719C9.56287 6.35375 11.1229 5.31219 11.9113 6.27906C12.9257 7.52219 13.2969 9.74969 14.4638 10.1884C13.3144 7.72094 15.1963 7.81719 12.5522 4.50562C13.9451 5.37094 14.6672 4.49531 16.5691 5.275C14.9419 2.61531 12.3388 3.38437 12.3388 3.38437C12.3388 3.38437 13.3982 2.41906 14.5213 2.44594C16.4188 2.88906 18.1641 4.38 18.4269 8.94438C18.5338 10.8084 17.8326 12.64 16.4522 14.1019Z" />
  </symbol>

  <symbol id="play">
    <path d="M5.00224 63.8798C4.25124 63.8778 3.5134 63.6824 2.85991 63.3123C2.17844 62.9363 1.6111 62.3833 1.21776 61.7117C0.824422 61.0401 0.619667 60.2748 0.625106 59.4965V4.50355C0.625113 3.7263 0.832178 2.9631 1.225 2.29243C1.61782 1.62176 2.18221 1.06784 2.86012 0.687659C3.53804 0.307476 4.30499 0.114751 5.0821 0.129308C5.8592 0.143865 6.6184 0.365179 7.2816 0.770484L52.2743 28.267C52.9137 28.6578 53.4421 29.2064 53.8087 29.86C54.1753 30.5137 54.3678 31.2506 54.3678 32C54.3678 32.7495 54.1753 33.4864 53.8087 34.14C53.4421 34.7937 52.9137 35.3423 52.2743 35.7331L7.2816 63.2296C6.59644 63.6526 5.80749 63.8777 5.00224 63.8798ZM5.00316 3.87488C4.89478 3.87606 4.78848 3.90483 4.69432 3.9585C4.59598 4.01103 4.51411 4.08976 4.45777 4.18596C4.40143 4.28216 4.37282 4.39208 4.37511 4.50355V59.4965C4.37512 59.6075 4.4047 59.7166 4.46082 59.8124C4.51694 59.9082 4.59757 59.9873 4.69441 60.0416C4.79126 60.0959 4.90082 60.1235 5.01183 60.1214C5.12284 60.1193 5.2313 60.0877 5.32604 60.0298L50.3187 32.5333C50.4101 32.4775 50.4856 32.3991 50.5379 32.3058C50.5903 32.2124 50.6178 32.1071 50.6178 32C50.6178 31.893 50.5903 31.7877 50.5379 31.6943C50.4856 31.6009 50.4101 31.5226 50.3187 31.4667L5.32604 3.97025C5.22946 3.90888 5.11759 3.87584 5.00316 3.87488Z" />
  </symbol>

  <symbol id="pause">
    <path d="M6.66667 47.3333C10.3333 47.3333 13.3333 44.3333 13.3333 40.6666V7.33329C13.3333 3.66663 10.3333 0.666626 6.66667 0.666626C3 0.666626 0 3.66663 0 7.33329V40.6666C0 44.3333 3 47.3333 6.66667 47.3333ZM26.6667 7.33329V40.6666C26.6667 44.3333 29.6667 47.3333 33.3333 47.3333C37 47.3333 40 44.3333 40 40.6666V7.33329C40 3.66663 37 0.666626 33.3333 0.666626C29.6667 0.666626 26.6667 3.66663 26.6667 7.33329Z" />
  </symbol>

  <symbol id="laptop">
    <path d="M4 2H16V0H4V2ZM17 3V12H19V3H17ZM3 12V3H1V12H3ZM16 2C16.5523 2 17 2.44772 17 3H19C19 1.34315 17.6569 0 16 0V2ZM4 0C2.34315 0 1 1.34315 1 3H3C3 2.44772 3.44772 2 4 2V0Z" />
    <path d="M18 12V13H20V12H18ZM17 14H3V16H17V14ZM2 13V12H0V13H2ZM2 12H18V10H2V12ZM3 14C2.44772 14 2 13.5523 2 13H0C0 14.6569 1.34315 16 3 16V14ZM18 13C18 13.5523 17.5523 14 17 14V16C18.6569 16 20 14.6569 20 13H18ZM20 12C20 10.8954 19.1046 10 18 10V12H20ZM2 12V10C0.89543 10 0 10.8954 0 12H2Z" />
    <path d="M8 12H12" stroke="currentColor" stroke-width="2" stroke-linecap="round" />
  </symbol>

  <symbol id="cup">
    <path d="M19.7727 15.9479H0.0258789C0.0258789 17.6968 1.35833 18.5076 2.4281 18.5076H17.3714C18.6515 18.5076 19.7727 17.5014 19.7727 15.9479Z" />
    <path d="M16.8693 2.84241H2.45312V12.304C2.45312 13.5848 3.55965 14.6005 4.75665 14.6005H14.1024C15.4541 14.6005 16.3737 13.4667 16.3737 12.304V11.5138C19.0382 11.5138 20.9739 9.51025 20.9739 7.17803C20.9741 4.79646 19.0767 2.84241 16.8693 2.84241ZM19.274 7.18083C19.274 8.54041 18.2728 9.83786 16.3735 9.71518V4.61848L16.8691 4.61918L16.87 4.62006C18.6951 4.62006 19.2808 6.34976 19.2741 7.18241L19.274 7.18083Z" />
  </symbol>

  <symbol id="sofa">
    <path d="M20.125 10.8722V6.82812C20.1243 6.25645 19.897 5.70838 19.4927 5.30415C19.0885 4.89991 18.5404 4.67253 17.9688 4.67188H5.03125C4.45958 4.67253 3.91151 4.89991 3.50727 5.30415C3.10304 5.70838 2.87565 6.25645 2.875 6.82812V10.8722C2.25825 11.0324 1.71202 11.3925 1.32184 11.8963C0.931663 12.4001 0.719563 13.019 0.71875 13.6562V18.6875C0.719178 19.0686 0.870766 19.434 1.14026 19.7035C1.40975 19.973 1.77513 20.1246 2.15625 20.125H2.875V22.2812H4.3125V20.125H18.6875V22.2812H20.125V20.125H20.8438C21.2249 20.1246 21.5903 19.973 21.8597 19.7035C22.1292 19.434 22.2808 19.0686 22.2812 18.6875V13.6562C22.2804 13.019 22.0683 12.4001 21.6782 11.8963C21.288 11.3925 20.7418 11.0324 20.125 10.8722ZM5.03125 18.6875H2.15625V13.6562C2.15625 13.275 2.3077 12.9094 2.57728 12.6398C2.84687 12.3702 3.2125 12.2188 3.59375 12.2188C3.975 12.2188 4.34063 12.3702 4.61022 12.6398C4.8798 12.9094 5.03125 13.275 5.03125 13.6562V18.6875ZM16.5312 18.6875H6.46875V14.375H16.5312V18.6875ZM16.6222 12.9375H6.37778C6.24837 12.4407 5.98875 11.9873 5.62571 11.6243C5.26266 11.2613 4.80934 11.0016 4.3125 10.8722V6.82812C4.31273 6.63757 4.38852 6.45488 4.52327 6.32014C4.65801 6.1854 4.84069 6.1096 5.03125 6.10938H17.9688C18.1593 6.1096 18.342 6.1854 18.4767 6.32014C18.6115 6.45488 18.6873 6.63757 18.6875 6.82812V10.8722C18.1907 11.0016 17.7373 11.2613 17.3743 11.6243C17.0113 11.9873 16.7516 12.4407 16.6222 12.9375ZM20.8438 18.6875H17.9688V13.6562C17.9688 13.275 18.1202 12.9094 18.3898 12.6398C18.6594 12.3702 19.025 12.2188 19.4062 12.2188C19.7875 12.2188 20.1531 12.3702 20.4227 12.6398C20.6923 12.9094 20.8438 13.275 20.8438 13.6562L20.8446 18.6875H20.8438Z" />
  </symbol>

  <symbol id="add-image">
    <path fill-rule="evenodd" clip-rule="evenodd" d="M17.1429 0V2.85714H20V4.7619H17.1429V7.60952C17.1429 7.60952 15.2476 7.61905 15.2381 7.60952V4.7619H12.381C12.381 4.7619 12.3905 2.86667 12.381 2.85714H15.2381V0H17.1429ZM15.2381 18.0952H1.90476V4.7619H10.4762V2.85714H1.90476C0.857143 2.85714 0 3.71429 0 4.7619V18.0952C0 19.1429 0.857143 20 1.90476 20H15.2381C16.2857 20 17.1429 19.1429 17.1429 18.0952V9.52381H15.2381V18.0952ZM7.81905 15.0762L5.95238 12.8286L3.33333 16.1905H13.8095L10.4381 11.7048L7.81905 15.0762Z" />
  </symbol>

  <symbol id="make-copy" fill="none">
    <path d="M14.9998 6.66675H8.33317C7.4127 6.66675 6.6665 7.41294 6.6665 8.33341V15.0001C6.6665 15.9206 7.4127 16.6667 8.33317 16.6667H14.9998C15.9203 16.6667 16.6665 15.9206 16.6665 15.0001V8.33341C16.6665 7.41294 15.9203 6.66675 14.9998 6.66675Z" stroke="currentColor" stroke-width="2" stroke-linecap="round" stroke-linejoin="round" />
    <path d="M13.3335 6.66659V4.99992C13.3335 4.55789 13.1579 4.13397 12.8453 3.82141C12.5328 3.50885 12.1089 3.33325 11.6668 3.33325H5.00016C4.55814 3.33325 4.13421 3.50885 3.82165 3.82141C3.50909 4.13397 3.3335 4.55789 3.3335 4.99992V11.6666C3.3335 12.1086 3.50909 12.5325 3.82165 12.8451C4.13421 13.1577 4.55814 13.3333 5.00016 13.3333H6.66683" stroke="currentColor" stroke-width="2" stroke-linecap="round" stroke-linejoin="round" />
  </symbol>
</svg>